<?xml version="1.0" encoding="utf-8"?>
<!-- Generator: Adobe Illustrator 23.0.1, SVG Export Plug-In . SVG Version: 6.00 Build 0)  -->
<svg version="1.1" id="Layer_5" xmlns="http://www.w3.org/2000/svg" xmlns:xlink="http://www.w3.org/1999/xlink" x="0px" y="0px"
	 width="60px" height="60px" viewBox="0 0 60 60" style="enable-background:new 0 0 60 60;" xml:space="preserve">
<style type="text/css">
	.st0{fill:#B2DDF7;}
	.st1{fill:#1E284C;}
</style>
<path class="st0" d="M30.2,31.9h16.5c0.5,0,0.8-0.6,0.4-1c-1.3-1.4-3.8-4.6-6.7-10.6c-3.4-7.1-7.9-9-9.6-9.4
	c-0.4-0.1-0.7,0.2-0.7,0.6V31.9z"/>
<path class="st1" d="M31,40v-7.3h15.8c0.5,0,1-0.3,1.2-0.8c0.2-0.5,0.1-1-0.2-1.4c-1.2-1.3-3.7-4.4-6.5-10.5
	c-3.5-7.4-8.2-9.3-10.1-9.8c-0.4-0.1-0.8,0-1.1,0.2c-0.3,0.3-0.5,0.6-0.5,1V40H3.8c-0.5,0-0.7,0.5-0.5,0.9l6.2,9.2
	c0.1,0.2,0.3,0.2,0.5,0.2h40.3c0.2,0,0.4-0.1,0.5-0.2l6.2-9.2c0.3-0.4,0-0.9-0.5-0.9H31z M31,11.8c1.8,0.5,5.8,2.4,8.9,8.9
	c2.8,5.8,5.2,9,6.5,10.5H31V11.8z M49.9,48.8H10.5l-5-7.3h49.3L49.9,48.8z"/>
</svg>
