<?xml version="1.0" encoding="utf-8"?>
<!-- Generator: Adobe Illustrator 23.0.1, SVG Export Plug-In . SVG Version: 6.00 Build 0)  -->
<svg version="1.1" id="Layer_5" xmlns="http://www.w3.org/2000/svg" xmlns:xlink="http://www.w3.org/1999/xlink" x="0px" y="0px"
	 width="60px" height="60px" viewBox="0 0 60 60" style="enable-background:new 0 0 60 60;" xml:space="preserve">
<style type="text/css">
	.st0{fill:#B2F0FB;}
	.st1{fill:#1E284C;}
</style>
<path class="st0" d="M56.8,41.3c0,4.9-3.9,8.8-8.8,8.8H12.7c-4.9,0-8.8-3.9-8.8-8.8s3.9-8.8,8.8-8.8c0.4,0,0.8,0,1.3,0.1
	c0.7-3.6,4.3-6.3,8.8-6.3c1.8,0,3.4,0.4,4.8,1.2c1.5-3.4,5.1-5.8,9.3-5.8c5.5,0,10,4.2,10,9.3c0,0.6-0.1,1.1-0.2,1.7
	c0.4-0.1,0.9-0.1,1.3-0.1C52.8,32.5,56.8,36.4,56.8,41.3z"/>
<path class="st1" d="M48,31.7c-0.2,0-0.3,0-0.5,0c0-0.3,0-0.6,0-0.8c0-5.5-4.8-10-10.8-10c-2.3,0-4.5,0.7-6.3,1.9
	c-1.9-3.1-5.4-5.2-9.3-5.2c-6,0-10.9,4.9-10.9,10.9c0,1.2,0.2,2.4,0.6,3.5C6.4,32.8,3,36.7,3,41.4c0,5.3,4.3,9.5,9.5,9.5H48
	c5.3,0,9.5-4.3,9.5-9.5C57.5,36,53.2,31.7,48,31.7z M11.8,28.4c0-5.2,4.2-9.4,9.4-9.4c3.5,0,6.5,1.9,8.1,4.7
	c-0.9,0.8-1.6,1.7-2.2,2.7c-1.4-0.6-2.9-0.9-4.4-0.9c-4.5,0-8.3,2.6-9.3,6.3c-0.2,0-0.4,0-0.7,0h-0.2C12,30.7,11.8,29.5,11.8,28.4z
	 M48,49.3H12.7c-4.4,0-8-3.6-8-8.1c0-4,3-7.4,6.9-8c0.4,0,0.8-0.1,1.2-0.1c0.2,0,0.3,0,0.5,0s0.4,0,0.6,0.1l0.7,0.1l0.1-0.7
	c0.6-3.3,4-5.7,8-5.7c1.6,0,3.1,0.4,4.4,1.1l0.7,0.4l0.3-0.7c0.4-1,1.1-1.9,1.8-2.6c0.4-0.4,0.8-0.7,1.2-1c1.6-1.1,3.5-1.7,5.6-1.7
	c5.1,0,9.3,3.8,9.3,8.5c0,0.5,0,1-0.1,1.5l-0.2,1l1-0.2c0.4-0.1,0.8-0.1,1.2-0.1c4.4,0,8.1,3.6,8.1,8C56,45.7,52.4,49.3,48,49.3z
	 M7.8,25.8H3.2c-0.4,0-0.7-0.3-0.7-0.7l0,0c0-0.4,0.3-0.7,0.7-0.7h4.6c0.4,0,0.7,0.3,0.7,0.7l0,0C8.6,25.5,8.2,25.8,7.8,25.8z
	 M11.1,18.8L8,15.5c-0.3-0.3-0.3-0.8,0-1.1l0,0c0.3-0.3,0.8-0.3,1.1,0l3.2,3.3c0.3,0.3,0.3,0.8,0,1.1l0,0
	C11.9,19.1,11.4,19.1,11.1,18.8z M29.6,18.3L29.6,18.3c-0.3-0.3-0.3-0.7-0.1-1.1l3-3.4c0.3-0.3,0.7-0.3,1.1-0.1l0,0
	c0.3,0.3,0.3,0.7,0.1,1.1l-3,3.4C30.3,18.5,29.9,18.5,29.6,18.3z M20,14.5V9.9c0-0.4,0.3-0.7,0.7-0.8l0,0c0.4,0,0.7,0.3,0.8,0.7v4.6
	c0,0.4-0.3,0.7-0.7,0.8l0,0C20.3,15.3,20,14.9,20,14.5z"/>
</svg>
