<?xml version="1.0" encoding="utf-8"?>
<!-- Generator: Adobe Illustrator 23.0.1, SVG Export Plug-In . SVG Version: 6.00 Build 0)  -->
<svg version="1.1" id="Layer_4" xmlns="http://www.w3.org/2000/svg" xmlns:xlink="http://www.w3.org/1999/xlink" x="0px" y="0px"
	 width="60px" height="60px" viewBox="0 0 60 60" style="enable-background:new 0 0 60 60;" xml:space="preserve">
<style type="text/css">
	.st0{fill:#E2C4FF;}
	.st1{fill:#1E284C;}
</style>
<path class="st0" d="M33.4,45.5h-6.3c-5.7,0-10.4-4.7-10.4-10.4v-3.6c0-5.7,4.7-10.4,10.4-10.4h6.3c5.7,0,10.4,4.7,10.4,10.4v3.6
	C43.8,40.9,39.2,45.5,33.4,45.5z"/>
<path class="st1" d="M46.8,36.4c3.2,0,7.9-0.3,10.2-2.1c0.3-0.2,0.3-0.6,0-0.9l-0.3-0.2c-0.2-0.2-0.5-0.2-0.7,0
	c-2.3,1.8-8.5,1.9-11.5,1.7v-2.7c2-0.8,8.3-4,8.6-15.3c2.6-0.4,4.6-2.9,4.6-6.1c0-2.3-1.1-4.4-2.9-5.5l-0.8-0.4l-1.6,4l-3.6-2.4
	l-0.4,0.6c-0.7,1.1-1.1,2.4-1.1,3.7c0,3,1.9,5.5,4.3,6c-0.3,9.5-5.1,12.7-7.1,13.7c-0.5-5.7-5.4-10.2-11.2-10.2h-6.1
	c-5.8,0-10.7,4.5-11.2,10.2c-2-1-6.9-4.2-7.2-13.7c2.4-0.5,4.3-3,4.3-6c0-1.4-0.4-2.7-1.1-3.7l-0.4-0.6L8,8.8l-1.6-4L5.6,5.3
	c-1.8,1-2.9,3.1-2.9,5.5c0,3.1,2,5.7,4.6,6.1c0.3,11.3,6.7,14.5,8.6,15.3v2.7c-3,0.2-9.3,0.1-11.5-1.7c-0.2-0.2-0.5-0.1-0.7,0
	l-0.3,0.2c-0.3,0.2-0.2,0.7,0,0.9c2.3,1.8,7,2.1,10.2,2.1c1,0,1.8,0,2.3-0.1c0.1,0.7,0.2,1.4,0.4,2.1C14,39.1,7.7,42,7.5,54.9
	c0,0.3,0.3,0.6,0.6,0.6h0.4c0.3,0,0.6-0.3,0.6-0.6c0.2-12.3,6.2-14.6,7.9-15.1c1.8,3.8,5.7,6.5,10.2,6.5h6.1c4.5,0,8.4-2.6,10.2-6.5
	c1.8,0.4,7.7,2.8,7.9,15.1c0,0.3,0.3,0.6,0.6,0.6h0.4c0.3,0,0.6-0.3,0.6-0.6c-0.2-12.9-6.5-15.8-8.9-16.5c0.2-0.7,0.4-1.4,0.4-2.1
	C45.1,36.4,45.9,36.4,46.8,36.4z M48.9,10.8c0-0.8,0.2-1.6,0.5-2.2l3.9,2.6l1.6-3.9c0.9,0.9,1.4,2.2,1.4,3.6c0,2.5-1.6,4.6-3.7,4.6
	C50.5,15.4,48.9,13.3,48.9,10.8z M4.2,10.8c0-1.4,0.5-2.8,1.4-3.6l1.6,3.9l3.9-2.6c0.3,0.7,0.5,1.4,0.5,2.2c0,2.5-1.6,4.6-3.7,4.6
	S4.2,13.3,4.2,10.8z M33.3,44.8h-6.1c-5.4,0-9.7-4.4-9.7-9.7v-3.5c0-5.4,4.4-9.7,9.7-9.7h6.1c5.4,0,9.7,4.4,9.7,9.7V35
	C43.1,40.4,38.7,44.8,33.3,44.8z"/>
</svg>
