<?xml version="1.0" encoding="utf-8"?>
<!-- Generator: Adobe Illustrator 23.0.1, SVG Export Plug-In . SVG Version: 6.00 Build 0)  -->
<svg version="1.1" id="Layer_5" xmlns="http://www.w3.org/2000/svg" xmlns:xlink="http://www.w3.org/1999/xlink" x="0px" y="0px"
	 width="60px" height="60px" viewBox="0 0 60 60" style="enable-background:new 0 0 60 60;" xml:space="preserve">
<style type="text/css">
	.st0{fill:#FFF69B;}
	.st1{fill:#1E284C;}
</style>
<path class="st0" d="M52.1,16.4c-3.1-1.4-6.5-1.7-7.8-1.8c-0.4-1-1.1-1.8-2.1-2.2c0.1-1,0.5-3.1,1.6-4.3C47.2,10.1,50,13,52.1,16.4z
	"/>
<path class="st0" d="M37.1,15.8c0,0.1,0,0.2,0,0.3c-4,1-23.7,6.4-33.1,14V30c0-8.5,4.1-16.1,10.5-20.8c12-0.7,20.7,3.1,23.3,4.5
	C37.3,14.3,37.1,15,37.1,15.8z"/>
<path class="st0" d="M51,45.2C46.3,51.7,38.7,56,30,56c-2.5,0-5-0.4-7.3-1.1c15.9-9.6,18-31.1,18.3-35.4c0.7,0,1.3-0.2,1.8-0.6
	C44.6,21.4,51,31.4,51,45.2z"/>
<path class="st1" d="M30,2.5C14.8,2.5,2.5,14.8,2.5,30c0,15.2,12.3,27.5,27.5,27.5S57.5,45.2,57.5,30C57.5,14.8,45.2,2.5,30,2.5z
	 M52.1,16.4c-3.1-1.4-6.5-1.7-7.8-1.8c-0.4-1-1.1-1.8-2.1-2.2c0.1-1,0.5-3.1,1.6-4.3C47.2,10.1,50,13,52.1,16.4z M43,15.8
	c0,1.2-1,2.2-2.2,2.2c-1.2,0-2.2-1-2.2-2.2c0-1.2,1-2.2,2.2-2.2C42,13.6,43,14.6,43,15.8z M30,4c4.5,0,8.8,1.2,12.5,3.2
	c-1.3,1.5-1.7,3.7-1.8,4.9c-0.6,0-1.2,0.2-1.7,0.5c-1.9-1.1-10.1-5.1-22.1-5C20.7,5.3,25.2,4,30,4z M4,30c0-8.5,4.1-16.1,10.5-20.8
	c12-0.7,20.7,3.1,23.3,4.5c-0.4,0.6-0.7,1.3-0.7,2.1c0,0.1,0,0.2,0,0.3C33.1,17.1,13.4,22.5,4,30L4,30z M4.8,31.4
	c9-7.4,28.9-12.9,32.7-13.9c0.4,0.8,1.1,1.4,2,1.8c-0.2,3.8-2.2,25.3-17.9,34.6c-0.5,0.3-1.1,0.3-1.6,0.1
	c-8.5-3.6-14.7-11.5-15.8-21C4.1,32.3,4.3,31.7,4.8,31.4z M30,56c-2.5,0-5-0.4-7.3-1.1c15.9-9.6,18-31.1,18.3-35.4
	c0.7,0,1.3-0.2,1.8-0.6c1.8,2.5,8.2,12.5,8.2,26.3C46.3,51.7,38.7,56,30,56z M43.9,17.8c0.4-0.5,0.6-1.1,0.6-1.8
	c1.7,0.2,5.6,0.7,8.5,2.5c0.3,0.2,0.5,0.5,0.7,0.8C55.2,22.6,56,26.2,56,30c0,4.7-1.3,9.2-3.5,13C51.8,29.4,45.5,20,43.9,17.8z"/>
</svg>
