<?xml version="1.0" encoding="utf-8"?>
<!-- Generator: Adobe Illustrator 23.0.1, SVG Export Plug-In . SVG Version: 6.00 Build 0)  -->
<svg version="1.1" id="Layer_6" xmlns="http://www.w3.org/2000/svg" xmlns:xlink="http://www.w3.org/1999/xlink" x="0px" y="0px"
	 width="60px" height="60px" viewBox="0 0 60 60" style="enable-background:new 0 0 60 60;" xml:space="preserve">
<style type="text/css">
	.st0{fill:#FFF69B;}
	.st1{fill:#1E284C;}
</style>
<path class="st0" d="M49.9,38.7c-0.1-2.7-2.3-4.9-5.1-4.9c-2.3,0-4.3,1.6-4.9,3.7c-0.1,0.2-0.3,0.2-0.4,0c-0.6-2.2-2.6-3.7-4.9-3.7
	c-2.3,0-4.3,1.6-4.9,3.7c-0.1,0.2-0.3,0.2-0.4,0c-0.6-2.2-2.6-3.7-4.9-3.7s-4.3,1.6-4.9,3.7c-0.1,0.2-0.3,0.2-0.4,0
	c-0.6-2.2-2.6-3.7-4.9-3.7c-2.8,0-5,2.2-5.1,4.9c0.2-11.3,9.2-20.5,20.3-20.5C40.7,18.3,49.7,27.4,49.9,38.7z"/>
<path class="st1" d="M42.7,22.3c1.2-1.3,1.8-3.1,1.8-5c0-4.3-3.5-7.7-7.7-7.7c-4.3,0-7.7,3.5-7.7,7.7c0,0.1,0,0.2,0,0.2
	C18.1,17.7,9,26.8,8.5,38.1c0,0.3,0.2,0.6,0.6,0.6h0.4c0.3,0,0.6-0.2,0.6-0.5c0.3-2.1,2.1-3.7,4.3-3.7s4.1,1.7,4.3,3.8
	c0,0.3,0.3,0.5,0.5,0.5h0.5c0.3,0,0.5-0.2,0.5-0.5c0.3-2.2,2.1-3.8,4.3-3.8c2.4,0,4.3,1.9,4.3,4.3v15c0,1.1-0.9,2.1-2.1,2.1
	c-1,0-1.8-0.7-2-1.6c-0.1-0.3-0.3-0.4-0.6-0.4h-0.4c-0.4,0-0.6,0.3-0.6,0.7c0.3,1.6,1.8,2.9,3.6,2.9c2,0,3.6-1.6,3.6-3.6v-15
	c0-2.4,1.9-4.3,4.3-4.3c2.2,0,4.1,1.7,4.3,3.8c0,0.3,0.3,0.5,0.5,0.5H40c0.3,0,0.5-0.2,0.5-0.5c0.3-2.2,2.1-3.8,4.3-3.8
	s4,1.6,4.3,3.7c0,0.3,0.3,0.5,0.6,0.5h0.4c0.3,0,0.6-0.3,0.6-0.6C50.4,31.7,47.3,26,42.7,22.3z M36.8,11.1c3.4,0,6.2,2.8,6.2,6.2
	c0,1.6-0.6,3-1.5,4.1c-3.1-2.2-6.9-3.6-10.9-3.8c0-0.1,0-0.2,0-0.3C30.6,13.8,33.4,11.1,36.8,11.1z M44.8,33.1c-2.2,0-4.1,1.2-5.1,3
	c-1-1.8-2.9-3-5.1-3c-2.2,0-4.1,1.2-5.1,3c-1-1.8-2.9-3-5.1-3s-4.1,1.2-5.1,3c-1-1.8-2.9-3-5.1-3c-1.5,0-2.8,0.5-3.8,1.4
	c2-8.8,9.7-15.4,18.8-15.5c0.1,0,1.1,0,1.6,0c3.5,0.2,6.7,1.4,9.5,3.3c0.4,0.3,0.9,0.6,1.3,0.9c3.4,2.8,6,6.7,7,11.2
	C47.6,33.6,46.3,33.1,44.8,33.1z M32.9,6.7l-1-3.2c-0.1-0.4,0.1-0.8,0.5-0.9l0,0c0.4-0.1,0.8,0.1,0.9,0.5l1,3.2
	c0.1,0.4-0.1,0.8-0.5,0.9l0,0C33.4,7.3,33,7.1,32.9,6.7z M41.7,7.9L41.7,7.9c-0.4-0.2-0.5-0.6-0.3-1L42.9,4c0.2-0.4,0.6-0.5,1-0.3
	l0,0c0.4,0.2,0.5,0.6,0.3,1l-1.5,2.9C42.5,7.9,42.1,8.1,41.7,7.9z M46.9,14.3L46.9,14.3c-0.1-0.4,0.1-0.8,0.5-1l3.1-1.1
	c0.4-0.1,0.8,0.1,1,0.5l0,0c0.1,0.4-0.1,0.8-0.5,1l-3.1,1.1C47.5,14.9,47.1,14.7,46.9,14.3z M46.1,22.1L46.1,22.1
	c0.2-0.4,0.6-0.5,1-0.3l3,1.5c0.4,0.2,0.5,0.6,0.3,1l0,0c-0.2,0.4-0.6,0.5-1,0.3l-3-1.5C46.1,23,45.9,22.5,46.1,22.1z M26.5,12.6
	l-2.9-1.5c-0.4-0.2-0.5-0.6-0.3-1l0,0c0.2-0.4,0.6-0.5,1-0.3l2.9,1.5c0.4,0.2,0.5,0.6,0.3,1l0,0C27.3,12.7,26.9,12.8,26.5,12.6z"/>
</svg>
