<?xml version="1.0" encoding="utf-8"?>
<!-- Generator: Adobe Illustrator 23.0.1, SVG Export Plug-In . SVG Version: 6.00 Build 0)  -->
<svg version="1.1" id="Layer_5" xmlns="http://www.w3.org/2000/svg" xmlns:xlink="http://www.w3.org/1999/xlink" x="0px" y="0px"
	 width="60px" height="60px" viewBox="0 0 60 60" style="enable-background:new 0 0 60 60;" xml:space="preserve">
<style type="text/css">
	.st0{fill:#FFF69B;}
	.st1{fill:#1E284C;}
</style>
<circle class="st0" cx="30" cy="30" r="11.3"/>
<path class="st1" d="M30,42c-6.6,0-12-5.4-12-12s5.4-12,12-12s12,5.4,12,12S36.6,42,30,42z M30,19.5c-5.8,0-10.5,4.7-10.5,10.5
	S24.2,40.5,30,40.5S40.5,35.8,40.5,30S35.8,19.5,30,19.5z M30,57.5L30,57.5c-0.4,0-0.8-0.3-0.8-0.7V44.6c0-0.4,0.3-0.7,0.7-0.7l0,0
	c0.4,0,0.7,0.3,0.7,0.7v12.1C30.8,57.2,30.4,57.5,30,57.5z M30,16.1L30,16.1c-0.4,0-0.8-0.3-0.8-0.7V3.2c0-0.4,0.3-0.7,0.7-0.7l0,0
	c0.4,0,0.7,0.3,0.7,0.7v12.1C30.8,15.8,30.4,16.1,30,16.1z M56.8,30.8H44.6c-0.4,0-0.7-0.3-0.7-0.7l0,0c0-0.4,0.3-0.7,0.7-0.7h12.1
	c0.4,0,0.7,0.3,0.7,0.7l0,0C57.5,30.4,57.2,30.8,56.8,30.8z M15.4,30.8H3.2c-0.4,0-0.7-0.3-0.7-0.7l0,0c0-0.4,0.3-0.7,0.7-0.7h12.1
	c0.4,0,0.7,0.3,0.7,0.7l0,0C16.1,30.4,15.8,30.8,15.4,30.8z M45.3,46.3L40,41.1c-0.3-0.3-0.3-0.8,0-1.1l0,0c0.3-0.3,0.8-0.3,1.1,0
	l5.2,5.2c0.3,0.3,0.3,0.8,0,1.1l0,0C46,46.6,45.5,46.6,45.3,46.3z M18.9,19.9l-5.2-5.2c-0.3-0.3-0.3-0.8,0-1.1l0,0
	c0.3-0.3,0.8-0.3,1.1,0l5.2,5.2c0.3,0.3,0.3,0.8,0,1.1l0,0C19.7,20.2,19.2,20.2,18.9,19.9z M40,19.9L40,19.9c-0.3-0.3-0.3-0.8,0-1.1
	l5.2-5.2c0.3-0.3,0.8-0.3,1.1,0l0,0c0.3,0.3,0.3,0.8,0,1.1l-5.2,5.2C40.8,20.2,40.3,20.2,40,19.9z M13.7,46.3L13.7,46.3
	c-0.3-0.3-0.3-0.8,0-1.1l5.2-5.2c0.3-0.3,0.8-0.3,1.1,0l0,0c0.3,0.3,0.3,0.8,0,1.1l-5.2,5.2C14.5,46.6,14,46.6,13.7,46.3z"/>
</svg>
